<svg xmlns="http://www.w3.org/2000/svg" viewBox="0 0 64 64" fill="none">
  <rect width="64" height="64" rx="14" fill="#08151c"/>
  <rect x="10" y="12" width="28" height="36" rx="4" fill="#14303b" stroke="#7ee0cd" stroke-width="2"/>
  <path d="M16 22h16M16 28h20M16 34h12" stroke="#7ee0cd" stroke-width="2.2" stroke-linecap="round"/>
  <path d="M36 30c0-5.5 4.5-10 10-10h2c5.5 0 10 4.5 10 10v8c0 1.7-1.3 3-3 3h-12l-5 5v-5h-2c-1.7 0-3-1.3-3-3v-8z" fill="#3dcfb6"/>
  <circle cx="42" cy="32" r="1.6" fill="#042019"/>
  <circle cx="47" cy="32" r="1.6" fill="#042019"/>
  <circle cx="52" cy="32" r="1.6" fill="#042019"/>
</svg>
