<svg xmlns="http://www.w3.org/2000/svg" viewBox="0 0 64 64" fill="none">
  <rect width="64" height="64" rx="16" fill="#08151c"/>
  <rect x="8" y="8" width="48" height="48" rx="12" fill="#10232c" stroke="#3dcfb6" stroke-width="2"/>
  <path d="M18 22h12M18 28h18M18 34h10" stroke="#7ee0cd" stroke-width="2.5" stroke-linecap="round"/>
  <path d="M38 38c0-4.4 3.6-8 8-8h2c4.4 0 8 3.6 8 8v6c0 1.1-.9 2-2 2h-10l-4 4v-4h-2c-1.1 0-2-.9-2-2v-6z" fill="#3dcfb6"/>
  <circle cx="44" cy="38" r="1.4" fill="#042019"/>
  <circle cx="48.5" cy="38" r="1.4" fill="#042019"/>
  <circle cx="53" cy="38" r="1.4" fill="#042019"/>
</svg>
